# xmcd
#
# Track frame offsets:
#	150
#	20712
#	51062
#	78985
#	93462
#	101510
#	127342
#	140737
#	167880
#	189207
#
# Disc length: 2902 seconds
#
# Revision: 0
# Processed by: cddbd v1.4PL0 Copyright (c) Steve Scherf et al.
# Submitted via: audiograbber 1.81.01
#
DISCID=880b540a
DTITLE=Сергей Маховиков - Ловец
DYEAR=1999
DGENRE=
TTITLE0=Ловец
TTITLE1=Быль
TTITLE2=Река золотых сновидений
TTITLE3=Февраль
TTITLE4=След в след
TTITLE5=Потолкуй со мной
TTITLE6=Эгрегорово царство
TTITLE7=Колыбельная
TTITLE8=Память
TTITLE9=Небыль
EXTD=
EXTT0=
EXTT1=
EXTT2=
EXTT3=
EXTT4=
EXTT5=
EXTT6=
EXTT7=
EXTT8=
EXTT9=
PLAYORDER=
